<svg width="25" height="25" viewBox="0 0 25 25" fill="none" xmlns="http://www.w3.org/2000/svg">
<g clip-path="url(#clip0_64:56)">
<path d="M-3.00013e-06 12.5C-3.28996e-06 9.18479 1.31696 6.00537 3.66116 3.66116C6.00537 1.31696 9.18479 -5.24739e-07 12.5 -8.14564e-07C15.8152 -1.10439e-06 18.9946 1.31696 21.3388 3.66116C23.683 6.00537 25 9.18479 25 12.5C25 15.8152 23.683 18.9946 21.3388 21.3388C18.9946 23.683 15.8152 25 12.5 25C9.18479 25 6.00537 23.683 3.66116 21.3388C1.31696 18.9946 -2.71031e-06 15.8152 -3.00013e-06 12.5V12.5ZM11.7187 17.9688C11.7187 18.176 11.8011 18.3747 11.9476 18.5212C12.0941 18.6677 12.2928 18.75 12.5 18.75C12.7072 18.75 12.9059 18.6677 13.0524 18.5212C13.1989 18.3747 13.2812 18.176 13.2812 17.9688L13.2812 8.91719L16.6344 12.2719C16.7811 12.4186 16.98 12.501 17.1875 12.501C17.395 12.501 17.5939 12.4186 17.7406 12.2719C17.8873 12.1252 17.9697 11.9262 17.9697 11.7187C17.9697 11.5113 17.8873 11.3123 17.7406 11.1656L13.0531 6.47812C12.9806 6.40537 12.8943 6.34765 12.7994 6.30826C12.7045 6.26888 12.6028 6.2486 12.5 6.2486C12.3972 6.2486 12.2955 6.26888 12.2006 6.30826C12.1057 6.34765 12.0194 6.40537 11.9469 6.47812L7.25937 11.1656C7.11267 11.3123 7.03026 11.5113 7.03026 11.7188C7.03026 11.9262 7.11267 12.1252 7.25937 12.2719C7.40607 12.4186 7.60504 12.501 7.8125 12.501C8.01996 12.501 8.21892 12.4186 8.36562 12.2719L11.7187 8.91719L11.7187 17.9688Z" fill="#1C1621"/>
</g>
<defs>
<clipPath id="clip0_64:56">
<rect width="25" height="25" fill="white" transform="translate(25 25) rotate(180)"/>
</clipPath>
</defs>
</svg>
